<svg viewBox="0 0 64 64" xmlns="http://www.w3.org/2000/svg">
  <defs>
    <linearGradient id="earthquake-grad" x1="0%" y1="0%" x2="100%" y2="100%">
      <stop offset="0%" style="stop-color:#92400E;stop-opacity:1" />
      <stop offset="50%" style="stop-color:#78350F;stop-opacity:1" />
      <stop offset="100%" style="stop-color:#451A03;stop-opacity:1" />
    </linearGradient>
  </defs>
  <rect width="64" height="64" fill="url(#earthquake-grad)"/>
  <path d="M10 20 L15 20 L18 25 L22 25 L25 20 L30 20 L33 25 L37 25 L40 20 L45 20 L48 25 L52 25 L55 20 L60 20" stroke="white" stroke-width="2" fill="none" opacity="0.8"/>
  <path d="M10 35 L15 35 L18 40 L22 40 L25 35 L30 35 L33 40 L37 40 L40 35 L45 35 L48 40 L52 40 L55 35 L60 35" stroke="white" stroke-width="2" fill="none" opacity="0.8"/>
  <path d="M10 50 L15 50 L18 55 L22 55 L25 50 L30 50 L33 55 L37 55 L40 50 L45 50 L48 55 L52 55 L55 50 L60 50" stroke="white" stroke-width="2" fill="none" opacity="0.8"/>
  <line x1="0" y1="20" x2="64" y2="20" stroke="white" stroke-width="1" opacity="0.5"/>
  <line x1="0" y1="35" x2="64" y2="35" stroke="white" stroke-width="1" opacity="0.5"/>
  <line x1="0" y1="50" x2="64" y2="50" stroke="white" stroke-width="1" opacity="0.5"/>
</svg>
