<svg viewBox="0 0 64 64" xmlns="http://www.w3.org/2000/svg">
  <defs>
    <linearGradient id="rain-grad" x1="0%" y1="0%" x2="100%" y2="100%">
      <stop offset="0%" style="stop-color:#60A5FA;stop-opacity:0.8" />
      <stop offset="100%" style="stop-color:#3B82F6;stop-opacity:0.9" />
    </linearGradient>
  </defs>
  <rect width="64" height="64" fill="url(#rain-grad)" opacity="0.3"/>
  <path d="M10 10 L12 20 M20 8 L22 18 M30 12 L32 22 M40 10 L42 20 M50 8 L52 18" stroke="white" stroke-width="2" opacity="0.7"/>
  <path d="M15 25 L17 35 M25 23 L27 33 M35 27 L37 37 M45 25 L47 35 M55 23 L57 33" stroke="white" stroke-width="2" opacity="0.7"/>
  <path d="M12 40 L14 50 M22 38 L24 48 M32 42 L34 52 M42 40 L44 50 M52 38 L54 48" stroke="white" stroke-width="2" opacity="0.7"/>
</svg>
