<svg viewBox="0 0 128 128" xmlns="http://www.w3.org/2000/svg">
  <defs>
    <linearGradient id="treant-grad" x1="0%" y1="0%" x2="100%" y2="100%">
      <stop offset="0%" style="stop-color:#16A34A;stop-opacity:1" />
      <stop offset="50%" style="stop-color:#15803D;stop-opacity:1" />
      <stop offset="100%" style="stop-color:#166534;stop-opacity:1" />
    </linearGradient>
  </defs>
  <ellipse cx="64" cy="90" rx="65" ry="45" fill="url(#treant-grad)" stroke="#1E293B" stroke-width="3"/>
  <circle cx="35" cy="45" r="18" fill="white" stroke="#16A34A" stroke-width="2"/>
  <circle cx="93" cy="45" r="18" fill="white" stroke="#16A34A" stroke-width="2"/>
  <ellipse cx="64" cy="75" rx="15" ry="12" fill="white"/>
  <path d="M25 25 L40 45 L45 35 L30 15 Z" fill="white" stroke="#16A34A" stroke-width="2"/>
  <path d="M103 25 L88 45 L83 35 L98 15 Z" fill="white" stroke="#16A34A" stroke-width="2"/>
  <path d="M15 75 L35 65 L40 80 L20 90 Z" fill="white" stroke="#16A34A" stroke-width="2"/>
  <path d="M113 75 L93 65 L88 80 L108 90 Z" fill="white" stroke="#16A34A" stroke-width="2"/>
  <rect x="55" y="95" width="18" height="20" fill="#8B4513" rx="3"/>
  <ellipse cx="64" cy="105" r="8" fill="white"/>
  <circle cx="64" cy="105" r="4" fill="green"/>
</svg>
