<svg viewBox="0 0 128 128" xmlns="http://www.w3.org/2000/svg">
  <defs>
    <linearGradient id="celestial-avatar-grad" x1="0%" y1="0%" x2="100%" y2="100%">
      <stop offset="0%" style="stop-color:#FCD34D;stop-opacity:1" />
      <stop offset="50%" style="stop-color:#F59E0B;stop-opacity:1" />
      <stop offset="100%" style="stop-color:#D97706;stop-opacity:1" />
    </linearGradient>
  </defs>
  <ellipse cx="64" cy="85" rx="60" ry="45" fill="url(#celestial-avatar-grad)" stroke="#1E293B" stroke-width="3"/>
  <circle cx="35" cy="45" r="18" fill="white" stroke="#F59E0B" stroke-width="2"/>
  <circle cx="93" cy="45" r="18" fill="white" stroke="#F59E0B" stroke-width="2"/>
  <ellipse cx="64" cy="70" rx="15" ry="12" fill="white"/>
  <path d="M25 25 L40 45 L45 35 L30 15 Z" fill="white" stroke="#F59E0B" stroke-width="2"/>
  <path d="M103 25 L88 45 L83 35 L98 15 Z" fill="white" stroke="#F59E0B" stroke-width="2"/>
  <path d="M15 70 L35 60 L40 75 L20 85 Z" fill="white" stroke="#F59E0B" stroke-width="2"/>
  <path d="M113 70 L93 60 L88 75 L108 85 Z" fill="white" stroke="#F59E0B" stroke-width="2"/>
  <circle cx="64" cy="105" r="10" fill="white"/>
  <path d="M54 105 L74 105 M64 95 L64 115" stroke="#F59E0B" stroke-width="3"/>
  <path d="M64 95 L64 115 M54 105 L74 105" stroke="#FCD34D" stroke-width="1"/>
</svg>
