<svg viewBox="0 0 128 128" xmlns="http://www.w3.org/2000/svg">
  <defs>
    <linearGradient id="ice-lich-grad" x1="0%" y1="0%" x2="100%" y2="100%">
      <stop offset="0%" style="stop-color:#E0E7FF;stop-opacity:1" />
      <stop offset="50%" style="stop-color:#C7D2FE;stop-opacity:1" />
      <stop offset="100%" style="stop-color:#A5B4FC;stop-opacity:1" />
    </linearGradient>
  </defs>
  <ellipse cx="64" cy="90" rx="50" ry="35" fill="url(#ice-lich-grad)" stroke="#1E293B" stroke-width="3"/>
  <circle cx="40" cy="50" r="15" fill="white" stroke="#1E293B" stroke-width="2"/>
  <circle cx="88" cy="50" r="15" fill="white" stroke="#1E293B" stroke-width="2"/>
  <ellipse cx="64" cy="75" rx="10" ry="8" fill="#1F2937"/>
  <path d="M30 30 L45 50 L50 40 L35 20 Z" fill="white" stroke="#1E293B" stroke-width="2"/>
  <path d="M98 30 L83 50 L78 40 L93 20 Z" fill="white" stroke="#1E293B" stroke-width="2"/>
  <path d="M20 80 L40 70 L45 85 L25 95 Z" fill="white" stroke="#1E293B" stroke-width="2"/>
  <path d="M108 80 L88 70 L83 85 L103 95 Z" fill="white" stroke="#1E293B" stroke-width="2"/>
  <circle cx="64" cy="100" r="8" fill="white" opacity="0.8"/>
  <path d="M56 100 L72 100 M64 92 L64 108" stroke="#1E293B" stroke-width="2"/>
</svg>
