<svg viewBox="0 0 128 128" xmlns="http://www.w3.org/2000/svg">
  <defs>
    <linearGradient id="shadow-assassin-grad" x1="0%" y1="0%" x2="100%" y2="100%">
      <stop offset="0%" style="stop-color:#1F2937;stop-opacity:1" />
      <stop offset="50%" style="stop-color:#111827;stop-opacity:1" />
      <stop offset="100%" style="stop-color:#000000;stop-opacity:1" />
    </linearGradient>
  </defs>
  <ellipse cx="64" cy="85" rx="55" ry="40" fill="url(#shadow-assassin-grad)" stroke="#1E293B" stroke-width="3"/>
  <circle cx="35" cy="45" r="15" fill="none" stroke="#6B7280" stroke-width="2"/>
  <circle cx="93" cy="45" r="15" fill="none" stroke="#6B7280" stroke-width="2"/>
  <ellipse cx="64" cy="70" rx="12" ry="10" fill="none" stroke="#6B7280" stroke-width="2"/>
  <path d="M25 25 L40 45 L45 35 L30 15 Z" fill="none" stroke="#6B7280" stroke-width="2"/>
  <path d="M103 25 L88 45 L83 35 L98 15 Z" fill="none" stroke="#6B7280" stroke-width="2"/>
  <path d="M15 70 L35 60 L40 75 L20 85 Z" fill="none" stroke="#6B7280" stroke-width="2"/>
  <path d="M113 70 L93 60 L88 75 L108 85 Z" fill="none" stroke="#6B7280" stroke-width="2"/>
  <path d="M54 100 L64 110 L74 100" stroke="#6B7280" stroke-width="3" fill="none"/>
  <circle cx="64" cy="105" r="5" fill="none" stroke="#6B7280" stroke-width="2"/>
  <path d="M64 95 L64 115" stroke="#6B7280" stroke-width="2"/>
</svg>
